<svg width="134" height="54" viewBox="0 0 134 54" version="1.1" xmlns="http://www.w3.org/2000/svg" xmlns:xlink="http://www.w3.org/1999/xlink"><defs><path id="path-1" d="M0 .32v38.629h114.94l8.423 8.914v-8.914h6.408V.32z"/></defs><g id="v2" stroke="none" stroke-width="1" fill="none" fill-rule="evenodd"><g id="menu-aberto-desktop-nerdz" transform="translate(-206 -18)" fill-rule="nonzero"><g id="Logo---Nerdz-(RGB)-Copy-2" transform="translate(208 20)"><g id="Shape"><use fill="#000" fill-rule="evenodd" xlink:href="#path-1"/><path stroke="#FFF" stroke-width="1.5" d="M124.113 39.699v10.05l-9.496-10.05H-.75V-.43h131.271v40.129h-6.408z"/></g><path d="M32.363 32.96h-6.226c-1.281 0-1.693-.183-2.426-1.234L15.518 19.84h-.275v13.12H7.461V6.674h6.271c1.648 0 1.648.183 2.06.777.275.458 7.187 10.103 8.606 12.389h.183V6.674h7.736V32.96h.046z" id="Shape" fill="#FFF"/><path id="Shape" fill="red" d="M34.606 5.074L54.93 8.686l-1.053 6.171-12.634-2.24-.64 3.474 10.527 1.875-1.144 6.354-10.528-1.92-.641 3.383 12.588 2.194-1.144 6.492-20.279-3.612z"/><path d="M61.063 32.96h-7.827V6.674H69.12c5.264 0 7.873 3.246 7.873 6.995v4.16c0 2.56-1.19 4.845-3.616 5.988l3.936 9.097h-8.102l-3.524-8.045h-4.624v8.091zm8.148-16.183V15.04c0-1.28-.64-2.149-2.197-2.149h-5.95v6.08h5.95c1.648 0 2.197-.914 2.197-2.194z" id="Shape" fill="#FFF"/><path d="M74.979 8.686L90.954 6.17c5.173-.822 8.423 2.012 8.972 5.715l1.923 11.931c.64 3.749-1.648 7.452-6.82 8.229L79.052 34.56 74.979 8.686zm17.44 5.851c-.229-1.508-1.144-2.148-2.7-1.92l-6.134.96 2.15 13.623 6.135-.96c1.556-.229 2.243-1.143 1.968-2.651l-1.419-9.052z" id="Shape" fill="#FFF"/><path id="Shape" fill="#FFF" d="M99.331 6.674h22.933v5.852L109.676 26.56h12.588v6.4H99.011v-6.354l12.038-13.623H99.331z"/></g></g></g></svg>